{
  "accessors": [
    {
      "bufferView": 2,
      "componentType": 5126,
      "count": 22753,
      "max": [
        2.1261000633239746,
        0.8035299777984619,
        0.2710700035095215
      ],
      "min": [
        -2.1651599407196045,
        -0.7125899791717529,
        0.22543999552726746
      ],
      "type": "VEC3"
    },
    {
      "bufferView": 2,
      "byteOffset": 273036,
      "componentType": 5126,
      "count": 22753,
      "max": [
        0.9860556125640869,
        0.9994237422943115,
        1.0
      ],
      "min": [
        -0.9816027283668518,
        -0.9911607503890991,
        -1.0
      ],
      "type": "VEC3"
    },
    {
      "bufferView": 1,
      "componentType": 5126,
      "count": 22753,
      "max": [
        0.8870400190353394,
        0.8773800134658813
      ],
      "min": [
        0.7212399840354919,
        0.40582001209259033
      ],
      "type": "VEC2"
    },
    {
      "bufferView": 0,
      "componentType": 5125,
      "count": 46521,
      "type": "SCALAR"
    },
    {
      "bufferView": 2,
      "byteOffset": 546072,
      "componentType": 5126,
      "count": 29571,
      "max": [
        2.0598700046539307,
        0.7547399997711182,
        0.2928699851036072
      ],
      "min": [
        -2.060889959335327,
        -0.5337600111961365,
        0.27031999826431274
      ],
      "type": "VEC3"
    },
    {
      "bufferView": 2,
      "byteOffset": 900924,
      "componentType": 5126,
      "count": 29571,
      "max": [
        1.0,
        1.0,
        1.0
      ],
      "min": [
        -1.0,
        -1.0,
        -0.015110516920685768
      ],
      "type": "VEC3"
    },
    {
      "bufferView": 1,
      "byteOffset": 182024,
      "componentType": 5126,
      "count": 29571,
      "max": [
        0.5094799995422363,
        0.35738998651504517
      ],
      "min": [
        0.11744999885559082,
        0.00546000013127923
      ],
      "type": "VEC2"
    },
    {
      "bufferView": 0,
      "byteOffset": 186084,
      "componentType": 5125,
      "count": 112752,
      "type": "SCALAR"
    },
    {
      "bufferView": 2,
      "byteOffset": 1255776,
      "componentType": 5126,
      "count": 1124,
      "max": [
        2.5059499740600586,
        1.1729700565338135,
        0.30437999963760376
      ],
      "min": [
        -2.0829999446868896,
        -0.8291599750518799,
        0.22503000497817993
      ],
      "type": "VEC3"
    },
    {
      "bufferView": 2,
      "byteOffset": 1269264,
      "componentType": 5126,
      "count": 1124,
      "max": [
        0.9851421117782593,
        0.9762294292449951,
        0.9948464035987854
      ],
      "min": [
        -0.6442715525627136,
        -0.9784824252128601,
        -1.0
      ],
      "type": "VEC3"
    },
    {
      "bufferView": 0,
      "byteOffset": 637092,
      "componentType": 5125,
      "count": 3666,
      "type": "SCALAR"
    },
    {
      "bufferView": 2,
      "byteOffset": 1282752,
      "componentType": 5126,
      "count": 7456,
      "max": [
        2.0605499744415283,
        0.7554600238800049,
        0.27623000741004944
      ],
      "min": [
        -2.0615599155426025,
        -0.5344799757003784,
        0.25909000635147095
      ],
      "type": "VEC3"
    },
    {
      "bufferView": 2,
      "byteOffset": 1372224,
      "componentType": 5126,
      "count": 7456,
      "max": [
        1.0,
        1.0,
        0.1504300981760025
      ],
      "min": [
        -1.0,
        -1.0,
        -0.12070073187351227
      ],
      "type": "VEC3"
    },
    {
      "bufferView": 0,
      "byteOffset": 651756,
      "componentType": 5125,
      "count": 29856,
      "type": "SCALAR"
    },
    {
      "bufferView": 2,
      "byteOffset": 1461696,
      "componentType": 5126,
      "count": 57970,
      "max": [
        2.509730100631714,
        1.516029953956604,
        0.30594998598098755
      ],
      "min": [
        -2.5064098834991455,
        -1.8932700157165527,
        0.0200399998575449
      ],
      "type": "VEC3"
    },
    {
      "bufferView": 2,
      "byteOffset": 2157336,
      "componentType": 5126,
      "count": 57970,
      "max": [
        1.0,
        1.0,
        1.0
      ],
      "min": [
        -1.0,
        -1.0,
        -1.0
      ],
      "type": "VEC3"
    },
    {
      "bufferView": 1,
      "byteOffset": 418592,
      "componentType": 5126,
      "count": 57970,
      "max": [
        0.9982799887657166,
        0.9993500113487244
      ],
      "min": [
        0.001979999942705035,
        0.0008099999977275729
      ],
      "type": "VEC2"
    },
    {
      "bufferView": 0,
      "byteOffset": 771180,
      "componentType": 5125,
      "count": 291792,
      "type": "SCALAR"
    },
    {
      "bufferView": 2,
      "byteOffset": 2852976,
      "componentType": 5126,
      "count": 4,
      "max": [
        2.3311901092529297,
        3.112109899520874,
        2.949739933013916
      ],
      "min": [
        -2.3311901092529297,
        1.657289981842041,
        0.42989999055862427
      ],
      "type": "VEC3"
    },
    {
      "bufferView": 2,
      "byteOffset": 2853024,
      "componentType": 5126,
      "count": 4,
      "max": [
        0.0,
        -0.8660327196121216,
        0.49998733401298523
      ],
      "min": [
        0.0,
        -0.8660327196121216,
        0.49998733401298523
      ],
      "type": "VEC3"
    },
    {
      "bufferView": 3,
      "componentType": 5126,
      "count": 4,
      "max": [
        1.0,
        0.0,
        0.0,
        1.0
      ],
      "min": [
        1.0,
        0.0,
        0.0,
        1.0
      ],
      "type": "VEC4"
    },
    {
      "bufferView": 1,
      "byteOffset": 882352,
      "componentType": 5126,
      "count": 4,
      "max": [
        1.0,
        1.0
      ],
      "min": [
        0.0,
        0.0
      ],
      "type": "VEC2"
    },
    {
      "bufferView": 0,
      "byteOffset": 1938348,
      "componentType": 5125,
      "count": 6,
      "type": "SCALAR"
    },
    {
      "bufferView": 2,
      "byteOffset": 2853072,
      "componentType": 5126,
      "count": 8670,
      "max": [
        2.504199981689453,
        3.2346999645233154,
        3.143470048904419
      ],
      "min": [
        -2.504199981689453,
        1.3847700357437134,
        0.15745000541210175
      ],
      "type": "VEC3"
    },
    {
      "bufferView": 2,
      "byteOffset": 2957112,
      "componentType": 5126,
      "count": 8670,
      "max": [
        1.0,
        0.9795029163360596,
        0.9977656602859497
      ],
      "min": [
        -1.0,
        -0.9994844198226929,
        -0.9999973177909851
      ],
      "type": "VEC3"
    },
    {
      "bufferView": 1,
      "byteOffset": 882384,
      "componentType": 5126,
      "count": 8670,
      "max": [
        0.9983599781990051,
        0.9977999925613403
      ],
      "min": [
        0.00016999999934341758,
        0.0008900000248104334
      ],
      "type": "VEC2"
    },
    {
      "bufferView": 0,
      "byteOffset": 1938372,
      "componentType": 5125,
      "count": 45312,
      "type": "SCALAR"
    },
    {
      "bufferView": 2,
      "byteOffset": 3061152,
      "componentType": 5126,
      "count": 4,
      "max": [
        4.86899995803833,
        4.86899995803833,
        0.01432000007480383
      ],
      "min": [
        -4.86899995803833,
        -4.86899995803833,
        0.01432000007480383
      ],
      "type": "VEC3"
    },
    {
      "bufferView": 2,
      "byteOffset": 3061200,
      "componentType": 5126,
      "count": 4,
      "max": [
        0.0,
        0.0,
        1.0
      ],
      "min": [
        0.0,
        0.0,
        1.0
      ],
      "type": "VEC3"
    },
    {
      "bufferView": 1,
      "byteOffset": 951744,
      "componentType": 5126,
      "count": 4,
      "max": [
        1.0,
        1.0
      ],
      "min": [
        0.0,
        0.0
      ],
      "type": "VEC2"
    },
    {
      "bufferView": 0,
      "byteOffset": 2119620,
      "componentType": 5125,
      "count": 6,
      "type": "SCALAR"
    },
    {
      "bufferView": 4,
      "componentType": 5126,
      "count": 1,
      "max": [
        0.041669998317956924
      ],
      "min": [
        0.041669998317956924
      ],
      "type": "SCALAR"
    },
    {
      "bufferView": 5,
      "componentType": 5126,
      "count": 1,
      "max": [
        0.0,
        0.0,
        0.0,
        1.0
      ],
      "min": [
        0.0,
        0.0,
        0.0,
        1.0
      ],
      "type": "VEC4"
    },
    {
      "bufferView": 4,
      "byteOffset": 4,
      "componentType": 5126,
      "count": 1,
      "max": [
        0.041669998317956924
      ],
      "min": [
        0.041669998317956924
      ],
      "type": "SCALAR"
    },
    {
      "bufferView": 5,
      "byteOffset": 16,
      "componentType": 5126,
      "count": 1,
      "max": [
        0.0,
        0.0,
        0.0,
        1.0
      ],
      "min": [
        0.0,
        0.0,
        0.0,
        1.0
      ],
      "type": "VEC4"
    },
    {
      "bufferView": 4,
      "byteOffset": 8,
      "componentType": 5126,
      "count": 1,
      "max": [
        0.041669998317956924
      ],
      "min": [
        0.041669998317956924
      ],
      "type": "SCALAR"
    },
    {
      "bufferView": 5,
      "byteOffset": 32,
      "componentType": 5126,
      "count": 1,
      "max": [
        0.0,
        0.0,
        0.0,
        1.0
      ],
      "min": [
        0.0,
        0.0,
        0.0,
        1.0
      ],
      "type": "VEC4"
    },
    {
      "bufferView": 4,
      "byteOffset": 12,
      "componentType": 5126,
      "count": 1,
      "max": [
        0.041669998317956924
      ],
      "min": [
        0.041669998317956924
      ],
      "type": "SCALAR"
    },
    {
      "bufferView": 5,
      "byteOffset": 48,
      "componentType": 5126,
      "count": 1,
      "max": [
        0.0,
        0.0,
        0.0,
        1.0
      ],
      "min": [
        0.0,
        0.0,
        0.0,
        1.0
      ],
      "type": "VEC4"
    },
    {
      "bufferView": 4,
      "byteOffset": 16,
      "componentType": 5126,
      "count": 1,
      "max": [
        0.041669998317956924
      ],
      "min": [
        0.041669998317956924
      ],
      "type": "SCALAR"
    },
    {
      "bufferView": 5,
      "byteOffset": 64,
      "componentType": 5126,
      "count": 1,
      "max": [
        0.0,
        0.0,
        0.0,
        1.0
      ],
      "min": [
        0.0,
        0.0,
        0.0,
        1.0
      ],
      "type": "VEC4"
    },
    {
      "bufferView": 4,
      "byteOffset": 20,
      "componentType": 5126,
      "count": 1,
      "max": [
        0.041669998317956924
      ],
      "min": [
        0.041669998317956924
      ],
      "type": "SCALAR"
    },
    {
      "bufferView": 5,
      "byteOffset": 80,
      "componentType": 5126,
      "count": 1,
      "max": [
        0.0,
        0.0,
        0.0,
        1.0
      ],
      "min": [
        0.0,
        0.0,
        0.0,
        1.0
      ],
      "type": "VEC4"
    },
    {
      "bufferView": 4,
      "byteOffset": 24,
      "componentType": 5126,
      "count": 1,
      "max": [
        0.041669998317956924
      ],
      "min": [
        0.041669998317956924
      ],
      "type": "SCALAR"
    },
    {
      "bufferView": 5,
      "byteOffset": 96,
      "componentType": 5126,
      "count": 1,
      "max": [
        0.0,
        0.0,
        0.0,
        1.0
      ],
      "min": [
        0.0,
        0.0,
        0.0,
        1.0
      ],
      "type": "VEC4"
    },
    {
      "bufferView": 4,
      "byteOffset": 28,
      "componentType": 5126,
      "count": 1,
      "max": [
        0.041669998317956924
      ],
      "min": [
        0.041669998317956924
      ],
      "type": "SCALAR"
    },
    {
      "bufferView": 5,
      "byteOffset": 112,
      "componentType": 5126,
      "count": 1,
      "max": [
        0.0,
        0.0,
        0.0,
        1.0
      ],
      "min": [
        0.0,
        0.0,
        0.0,
        1.0
      ],
      "type": "VEC4"
    },
    {
      "bufferView": 4,
      "byteOffset": 32,
      "componentType": 5126,
      "count": 1,
      "max": [
        0.041669998317956924
      ],
      "min": [
        0.041669998317956924
      ],
      "type": "SCALAR"
    },
    {
      "bufferView": 5,
      "byteOffset": 128,
      "componentType": 5126,
      "count": 1,
      "max": [
        0.0,
        0.0,
        0.0,
        1.0
      ],
      "min": [
        0.0,
        0.0,
        0.0,
        1.0
      ],
      "type": "VEC4"
    }
  ],
  "animations": [
    {
      "channels": [
        {
          "sampler": 0,
          "target": {
            "node": 18,
            "path": "rotation"
          }
        },
        {
          "sampler": 1,
          "target": {
            "node": 16,
            "path": "rotation"
          }
        },
        {
          "sampler": 2,
          "target": {
            "node": 14,
            "path": "rotation"
          }
        },
        {
          "sampler": 3,
          "target": {
            "node": 12,
            "path": "rotation"
          }
        },
        {
          "sampler": 4,
          "target": {
            "node": 10,
            "path": "rotation"
          }
        },
        {
          "sampler": 5,
          "target": {
            "node": 8,
            "path": "rotation"
          }
        },
        {
          "sampler": 6,
          "target": {
            "node": 6,
            "path": "rotation"
          }
        },
        {
          "sampler": 7,
          "target": {
            "node": 4,
            "path": "rotation"
          }
        },
        {
          "sampler": 8,
          "target": {
            "node": 2,
            "path": "rotation"
          }
        }
      ],
      "name": "Take 01",
      "samplers": [
        {
          "input": 31,
          "interpolation": "LINEAR",
          "output": 32
        },
        {
          "input": 33,
          "interpolation": "LINEAR",
          "output": 34
        },
        {
          "input": 35,
          "interpolation": "LINEAR",
          "output": 36
        },
        {
          "input": 37,
          "interpolation": "LINEAR",
          "output": 38
        },
        {
          "input": 39,
          "interpolation": "LINEAR",
          "output": 40
        },
        {
          "input": 41,
          "interpolation": "LINEAR",
          "output": 42
        },
        {
          "input": 43,
          "interpolation": "LINEAR",
          "output": 44
        },
        {
          "input": 45,
          "interpolation": "LINEAR",
          "output": 46
        },
        {
          "input": 47,
          "interpolation": "LINEAR",
          "output": 48
        }
      ]
    }
  ],
  "asset": {
    "extras": {
      "author": "3DHaupt (https://sketchfab.com/dennish2010)",
      "license": "CC-BY-NC-4.0 (http://creativecommons.org/licenses/by-nc/4.0/)",
      "source": "https://sketchfab.com/3d-models/hp-envy-17-notebook-784c8e3c97fe4bceb5c7bbb82fb0c693",
      "title": "HP ENVY 17 Notebook"
    },
    "generator": "Sketchfab-12.65.0",
    "version": "2.0"
  },
  "bufferViews": [
    {
      "buffer": 0,
      "byteLength": 2119644,
      "name": "floatBufferViews",
      "target": 34963
    },
    {
      "buffer": 0,
      "byteLength": 951776,
      "byteOffset": 2119644,
      "byteStride": 8,
      "name": "floatBufferViews",
      "target": 34962
    },
    {
      "buffer": 0,
      "byteLength": 3061248,
      "byteOffset": 3071420,
      "byteStride": 12,
      "name": "floatBufferViews",
      "target": 34962
    },
    {
      "buffer": 0,
      "byteLength": 64,
      "byteOffset": 6132668,
      "byteStride": 16,
      "name": "floatBufferViews",
      "target": 34962
    },
    {
      "buffer": 0,
      "byteLength": 36,
      "byteOffset": 6132732,
      "name": "floatBufferViews"
    },
    {
      "buffer": 0,
      "byteLength": 144,
      "byteOffset": 6132768,
      "byteStride": 16,
      "name": "floatBufferViews"
    }
  ],
  "buffers": [
    {
      "byteLength": 6132912,
      "uri": "scene.bin"
    }
  ],
  "images": [
    {
      "uri": "textures/Material_baseColor.png"
    },
    {
      "uri": "textures/Material.006_baseColor.jpeg"
    },
    {
      "uri": "textures/Display_baseColor.png"
    },
    {
      "uri": "textures/Display_normal.png"
    }
  ],
  "materials": [
    {
      "alphaMode": "BLEND",
      "doubleSided": true,
      "name": "Material",
      "pbrMetallicRoughness": {
        "baseColorFactor": [
          1.0,
          1.0,
          1.0,
          0.0
        ],
        "baseColorTexture": {
          "index": 0
        },
        "metallicFactor": 0.0,
        "roughnessFactor": 0.6
      }
    },
    {
      "emissiveFactor": [
        0.32,
        0.32,
        0.32
      ],
      "emissiveTexture": {
        "index": 1
      },
      "name": "Material.006",
      "pbrMetallicRoughness": {
        "baseColorTexture": {
          "index": 1
        },
        "roughnessFactor": 0.3373417915
      }
    },
    {
      "doubleSided": true,
      "emissiveFactor": [
        0.8,
        0.8,
        0.8
      ],
      "emissiveTexture": {
        "index": 2
      },
      "name": "Display",
      "normalTexture": {
        "index": 3,
        "scale": 0.0
      },
      "pbrMetallicRoughness": {
        "baseColorTexture": {
          "index": 2
        },
        "metallicFactor": 0.0,
        "roughnessFactor": 0.6
      }
    },
    {
      "alphaMode": "BLEND",
      "doubleSided": true,
      "name": "Material.002",
      "pbrMetallicRoughness": {
        "baseColorFactor": [
          0.8000000119,
          0.8000000119,
          0.8000000119,
          0.19
        ],
        "metallicFactor": 0.0,
        "roughnessFactor": 0.54
      }
    },
    {
      "doubleSided": true,
      "emissiveFactor": [
        1.0,
        1.0,
        1.0
      ],
      "name": "Material.011",
      "pbrMetallicRoughness": {
        "baseColorFactor": [
          0.8000000119,
          0.8000000119,
          0.8000000119,
          1.0
        ],
        "metallicFactor": 0.0,
        "roughnessFactor": 0.6
      }
    },
    {
      "doubleSided": true,
      "emissiveFactor": [
        1.0,
        1.0,
        1.0
      ],
      "emissiveTexture": {
        "index": 1
      },
      "name": "material",
      "pbrMetallicRoughness": {
        "baseColorTexture": {
          "index": 1
        },
        "metallicFactor": 0.0,
        "roughnessFactor": 0.6
      }
    }
  ],
  "meshes": [
    {
      "name": "Plane.011_0",
      "primitives": [
        {
          "attributes": {
            "NORMAL": 1,
            "POSITION": 0,
            "TEXCOORD_0": 2
          },
          "indices": 3,
          "material": 1,
          "mode": 4
        }
      ]
    },
    {
      "name": "Plane.009_0",
      "primitives": [
        {
          "attributes": {
            "NORMAL": 5,
            "POSITION": 4,
            "TEXCOORD_0": 6
          },
          "indices": 7,
          "material": 5,
          "mode": 4
        }
      ]
    },
    {
      "name": "Plane.008_0",
      "primitives": [
        {
          "attributes": {
            "NORMAL": 9,
            "POSITION": 8
          },
          "indices": 10,
          "material": 4,
          "mode": 4
        }
      ]
    },
    {
      "name": "Plane.007_0",
      "primitives": [
        {
          "attributes": {
            "NORMAL": 12,
            "POSITION": 11
          },
          "indices": 13,
          "material": 3,
          "mode": 4
        }
      ]
    },
    {
      "name": "Plane.005_0",
      "primitives": [
        {
          "attributes": {
            "NORMAL": 15,
            "POSITION": 14,
            "TEXCOORD_0": 16
          },
          "indices": 17,
          "material": 1,
          "mode": 4
        }
      ]
    },
    {
      "name": "Plane.001_0",
      "primitives": [
        {
          "attributes": {
            "NORMAL": 19,
            "POSITION": 18,
            "TANGENT": 20,
            "TEXCOORD_0": 21
          },
          "indices": 22,
          "material": 2,
          "mode": 4
        }
      ]
    },
    {
      "name": "Plane.002_0",
      "primitives": [
        {
          "attributes": {
            "NORMAL": 24,
            "POSITION": 23,
            "TEXCOORD_0": 25
          },
          "indices": 26,
          "material": 1,
          "mode": 4
        }
      ]
    },
    {
      "name": "Plane_0",
      "primitives": [
        {
          "attributes": {
            "NORMAL": 28,
            "POSITION": 27,
            "TEXCOORD_0": 29
          },
          "indices": 30,
          "material": 0,
          "mode": 4
        }
      ]
    }
  ],
  "nodes": [
    {
      "children": [
        1
      ],
      "matrix": [
        1.0,
        0.0,
        0.0,
        0.0,
        0.0,
        2.220446049250313e-16,
        -1.0,
        0.0,
        0.0,
        1.0,
        2.220446049250313e-16,
        0.0,
        0.0,
        0.0,
        0.0,
        1.0
      ],
      "name": "Sketchfab_model"
    },
    {
      "children": [
        2,
        4,
        6,
        8,
        10,
        12,
        14,
        16,
        18
      ],
      "name": "Root"
    },
    {
      "children": [
        3
      ],
      "name": "Plane.011"
    },
    {
      "mesh": 0,
      "name": "Plane.011_0"
    },
    {
      "children": [
        5
      ],
      "name": "Plane.009"
    },
    {
      "mesh": 1,
      "name": "Plane.009_0"
    },
    {
      "children": [
        7
      ],
      "name": "Plane.008"
    },
    {
      "mesh": 2,
      "name": "Plane.008_0"
    },
    {
      "children": [
        9
      ],
      "name": "Plane.007"
    },
    {
      "mesh": 3,
      "name": "Plane.007_0"
    },
    {
      "children": [
        11
      ],
      "name": "Plane.005"
    },
    {
      "mesh": 4,
      "name": "Plane.005_0"
    },
    {
      "children": [
        13
      ],
      "name": "Plane.001"
    },
    {
      "mesh": 5,
      "name": "Plane.001_0"
    },
    {
      "children": [
        15
      ],
      "name": "Plane.002"
    },
    {
      "mesh": 6,
      "name": "Plane.002_0"
    },
    {
      "children": [
        17
      ],
      "name": "Point",
      "translation": [
        -0.2598699927330017,
        -9.532279968261719,
        6.978260040283203
      ]
    },
    {
      "name": "Point"
    },
    {
      "children": [
        19
      ],
      "name": "Plane"
    },
    {
      "mesh": 7,
      "name": "Plane_0"
    }
  ],
  "samplers": [
    {
      "magFilter": 9729,
      "minFilter": 9987,
      "wrapS": 10497,
      "wrapT": 10497
    }
  ],
  "scene": 0,
  "scenes": [
    {
      "name": "Sketchfab_Scene",
      "nodes": [
        0
      ]
    }
  ],
  "textures": [
    {
      "sampler": 0,
      "source": 0
    },
    {
      "sampler": 0,
      "source": 1
    },
    {
      "sampler": 0,
      "source": 2
    },
    {
      "sampler": 0,
      "source": 3
    }
  ]
}
