{
  "accessors": [
    {
      "bufferView": 2,
      "componentType": 5126,
      "count": 588,
      "max": [
        8.138676643371582,
        26.2302188873291,
        1445.2685546875
      ],
      "min": [
        -146.4959716796875,
        -44.78363800048828,
        1412.669921875
      ],
      "type": "VEC3"
    },
    {
      "bufferView": 2,
      "byteOffset": 7056,
      "componentType": 5126,
      "count": 588,
      "max": [
        0.9992648959159851,
        0.9954500198364258,
        0.9981832504272461
      ],
      "min": [
        -0.999849259853363,
        -0.9933311343193054,
        -0.9980812668800354
      ],
      "type": "VEC3"
    },
    {
      "bufferView": 3,
      "componentType": 5126,
      "count": 588,
      "max": [
        0.9999532699584961,
        0.9995294809341431,
        0.9983952641487122,
        1.0
      ],
      "min": [
        -0.9999896883964539,
        -0.9999397993087769,
        -0.9999860525131226,
        -1.0
      ],
      "type": "VEC4"
    },
    {
      "bufferView": 1,
      "componentType": 5126,
      "count": 588,
      "max": [
        0.4487150013446808,
        0.7725539803504944
      ],
      "min": [
        0.42077600955963135,
        0.761900007724762
      ],
      "type": "VEC2"
    },
    {
      "bufferView": 0,
      "componentType": 5125,
      "count": 2592,
      "type": "SCALAR"
    },
    {
      "bufferView": 2,
      "byteOffset": 14112,
      "componentType": 5126,
      "count": 27971,
      "max": [
        323.509521484375,
        219.21414184570313,
        1769.3699951171875
      ],
      "min": [
        -309.4086608886719,
        -142.87086486816406,
        864.541748046875
      ],
      "type": "VEC3"
    },
    {
      "bufferView": 2,
      "byteOffset": 349764,
      "componentType": 5126,
      "count": 27971,
      "max": [
        0.9999727606773376,
        0.9999918937683105,
        0.9998891353607178
      ],
      "min": [
        -0.9999093413352966,
        -0.9999987483024597,
        -0.9999093413352966
      ],
      "type": "VEC3"
    },
    {
      "bufferView": 1,
      "byteOffset": 4704,
      "componentType": 5126,
      "count": 27971,
      "max": [
        0.9912779927253723,
        0.8463770151138306
      ],
      "min": [
        0.008721999824047089,
        0.008720999583601952
      ],
      "type": "VEC2"
    },
    {
      "bufferView": 0,
      "byteOffset": 10368,
      "componentType": 5125,
      "count": 157857,
      "type": "SCALAR"
    },
    {
      "bufferView": 2,
      "byteOffset": 685416,
      "componentType": 5126,
      "count": 27971,
      "max": [
        322.66192626953125,
        215.26669311523438,
        1765.60009765625
      ],
      "min": [
        -308.4297180175781,
        -136.9001007080078,
        864.46044921875
      ],
      "type": "VEC3"
    },
    {
      "bufferView": 2,
      "byteOffset": 1021068,
      "componentType": 5126,
      "count": 27971,
      "max": [
        0.999898374080658,
        0.9999987483024597,
        0.9999600052833557
      ],
      "min": [
        -0.9999714493751526,
        -0.9999906420707703,
        -0.9999551177024841
      ],
      "type": "VEC3"
    },
    {
      "bufferView": 1,
      "byteOffset": 228472,
      "componentType": 5126,
      "count": 27971,
      "max": [
        0.9912779927253723,
        0.8463770151138306
      ],
      "min": [
        0.008721999824047089,
        0.008720999583601952
      ],
      "type": "VEC2"
    },
    {
      "bufferView": 0,
      "byteOffset": 641796,
      "componentType": 5125,
      "count": 157857,
      "type": "SCALAR"
    },
    {
      "bufferView": 2,
      "byteOffset": 1356720,
      "componentType": 5126,
      "count": 24304,
      "max": [
        313.1598205566406,
        205.08815002441406,
        1769.3699951171875
      ],
      "min": [
        -301.5934143066406,
        -126.6559829711914,
        862.5115356445313
      ],
      "type": "VEC3"
    },
    {
      "bufferView": 2,
      "byteOffset": 1648368,
      "componentType": 5126,
      "count": 24304,
      "max": [
        0.9999924898147583,
        0.9999796152114868,
        0.9997303485870361
      ],
      "min": [
        -0.999954104423523,
        -0.9999516606330872,
        -0.9999733567237854
      ],
      "type": "VEC3"
    },
    {
      "bufferView": 1,
      "byteOffset": 452240,
      "componentType": 5126,
      "count": 24304,
      "max": [
        0.9912779927253723,
        0.8463770151138306
      ],
      "min": [
        0.008721999824047089,
        0.008720999583601952
      ],
      "type": "VEC2"
    },
    {
      "bufferView": 0,
      "byteOffset": 1273224,
      "componentType": 5125,
      "count": 126972,
      "type": "SCALAR"
    }
  ],
  "asset": {
    "extras": {
      "author": "Obridje (https://sketchfab.com/Obridje)",
      "license": "CC-BY-4.0 (http://creativecommons.org/licenses/by/4.0/)",
      "source": "https://sketchfab.com/3d-models/hoodie-ab78848ab3404a2e877929d5f8774c54",
      "title": "HOODIE"
    },
    "generator": "Sketchfab-15.17.0",
    "version": "2.0"
  },
  "bufferViews": [
    {
      "buffer": 0,
      "byteLength": 1781112,
      "name": "floatBufferViews",
      "target": 34963
    },
    {
      "buffer": 0,
      "byteLength": 646672,
      "byteOffset": 1781112,
      "byteStride": 8,
      "name": "floatBufferViews",
      "target": 34962
    },
    {
      "buffer": 0,
      "byteLength": 1940016,
      "byteOffset": 2427784,
      "byteStride": 12,
      "name": "floatBufferViews",
      "target": 34962
    },
    {
      "buffer": 0,
      "byteLength": 9408,
      "byteOffset": 4367800,
      "byteStride": 16,
      "name": "floatBufferViews",
      "target": 34962
    }
  ],
  "buffers": [
    {
      "byteLength": 4377208,
      "uri": "scene.bin"
    }
  ],
  "images": [
    {
      "uri": "textures/CORDON_FRONT_5197366_baseColor.png"
    },
    {
      "uri": "textures/CORDON_FRONT_5197366_normal.png"
    }
  ],
  "materials": [
    {
      "doubleSided": true,
      "emissiveTexture": {
        "index": 0
      },
      "name": "CORDON_FRONT_5197366",
      "normalTexture": {
        "index": 1
      },
      "pbrMetallicRoughness": {
        "baseColorTexture": {
          "index": 0
        },
        "metallicFactor": 0.0,
        "roughnessFactor": 0.6972772905086628
      }
    },
    {
      "doubleSided": true,
      "emissiveTexture": {
        "index": 0
      },
      "name": "HOODIE_FRONT_5197361",
      "pbrMetallicRoughness": {
        "baseColorTexture": {
          "index": 0
        },
        "metallicFactor": 0.0,
        "roughnessFactor": 0.9827475502465659
      }
    }
  ],
  "meshes": [
    {
      "name": "Object_0",
      "primitives": [
        {
          "attributes": {
            "NORMAL": 1,
            "POSITION": 0,
            "TANGENT": 2,
            "TEXCOORD_0": 3
          },
          "indices": 4,
          "material": 0,
          "mode": 4
        }
      ]
    },
    {
      "name": "Object_1",
      "primitives": [
        {
          "attributes": {
            "NORMAL": 6,
            "POSITION": 5,
            "TEXCOORD_0": 7
          },
          "indices": 8,
          "material": 1,
          "mode": 4
        }
      ]
    },
    {
      "name": "Object_2",
      "primitives": [
        {
          "attributes": {
            "NORMAL": 10,
            "POSITION": 9,
            "TEXCOORD_0": 11
          },
          "indices": 12,
          "material": 1,
          "mode": 4
        }
      ]
    },
    {
      "name": "Object_3",
      "primitives": [
        {
          "attributes": {
            "NORMAL": 14,
            "POSITION": 13,
            "TEXCOORD_0": 15
          },
          "indices": 16,
          "material": 1,
          "mode": 4
        }
      ]
    }
  ],
  "nodes": [
    {
      "children": [
        1
      ],
      "matrix": [
        1.0,
        0.0,
        0.0,
        0.0,
        0.0,
        2.220446049250313e-16,
        -1.0,
        0.0,
        0.0,
        1.0,
        2.220446049250313e-16,
        0.0,
        0.0,
        0.0,
        0.0,
        1.0
      ],
      "name": "Sketchfab_model"
    },
    {
      "children": [
        2,
        3,
        4,
        5
      ],
      "name": "HOODIE.obj.cleaner.materialmerger.gles"
    },
    {
      "mesh": 0,
      "name": "Object_2"
    },
    {
      "mesh": 1,
      "name": "Object_3"
    },
    {
      "mesh": 2,
      "name": "Object_4"
    },
    {
      "mesh": 3,
      "name": "Object_5"
    }
  ],
  "samplers": [
    {
      "magFilter": 9729,
      "minFilter": 9987,
      "wrapS": 10497,
      "wrapT": 10497
    }
  ],
  "scene": 0,
  "scenes": [
    {
      "name": "Sketchfab_Scene",
      "nodes": [
        0
      ]
    }
  ],
  "textures": [
    {
      "sampler": 0,
      "source": 0
    },
    {
      "sampler": 0,
      "source": 1
    }
  ]
}
