{
  "accessors": [
    {
      "bufferView": 2,
      "componentType": 5126,
      "count": 6257,
      "max": [
        44.950523376464844,
        157.6968994140625,
        1534.257080078125
      ],
      "min": [
        -124.46532440185547,
        25.572282791137695,
        1470.2374267578125
      ],
      "type": "VEC3"
    },
    {
      "bufferView": 2,
      "byteOffset": 75084,
      "componentType": 5126,
      "count": 6257,
      "max": [
        0.9987081289291382,
        0.9996145367622375,
        0.9993531107902527
      ],
      "min": [
        -0.9997168779373169,
        -0.9996300935745239,
        -0.9989767670631409
      ],
      "type": "VEC3"
    },
    {
      "bufferView": 1,
      "componentType": 5126,
      "count": 6257,
      "max": [
        0.9696069955825806,
        0.24127599596977234
      ],
      "min": [
        0.7966079711914063,
        0.04785599932074547
      ],
      "type": "VEC2"
    },
    {
      "bufferView": 0,
      "componentType": 5125,
      "count": 26034,
      "type": "SCALAR"
    },
    {
      "bufferView": 2,
      "byteOffset": 150168,
      "componentType": 5126,
      "count": 3667,
      "max": [
        2.7102549076080322,
        -25.985620498657227,
        1405.8663330078125
      ],
      "min": [
        -72.54890441894531,
        -62.22212600708008,
        1355.2601318359375
      ],
      "type": "VEC3"
    },
    {
      "bufferView": 2,
      "byteOffset": 194172,
      "componentType": 5126,
      "count": 3667,
      "max": [
        0.9998747706413269,
        0.9918714761734009,
        0.9885883331298828
      ],
      "min": [
        -0.9998073577880859,
        -0.9981778860092163,
        -0.990007758140564
      ],
      "type": "VEC3"
    },
    {
      "bufferView": 3,
      "componentType": 5126,
      "count": 3667,
      "max": [
        0.9999873638153076,
        0.9999968409538269,
        0.9999979734420776,
        1.0
      ],
      "min": [
        -0.9999948740005493,
        -0.9999964833259583,
        -0.9999988675117493,
        -1.0
      ],
      "type": "VEC4"
    },
    {
      "bufferView": 1,
      "byteOffset": 50056,
      "componentType": 5126,
      "count": 3667,
      "max": [
        0.2892740070819855,
        0.9256150126457214
      ],
      "min": [
        0.21357500553131104,
        0.8833199739456177
      ],
      "type": "VEC2"
    },
    {
      "bufferView": 0,
      "byteOffset": 104136,
      "componentType": 5125,
      "count": 14106,
      "type": "SCALAR"
    },
    {
      "bufferView": 2,
      "byteOffset": 238176,
      "componentType": 5126,
      "count": 16596,
      "max": [
        287.6209716796875,
        212.26634216308594,
        1521.510498046875
      ],
      "min": [
        -305.6559143066406,
        -168.34291076660156,
        826.209228515625
      ],
      "type": "VEC3"
    },
    {
      "bufferView": 2,
      "byteOffset": 437328,
      "componentType": 5126,
      "count": 16596,
      "max": [
        0.999991238117218,
        0.9999980926513672,
        0.9994603395462036
      ],
      "min": [
        -0.9999969005584717,
        -0.9999440908432007,
        -0.9683534502983093
      ],
      "type": "VEC3"
    },
    {
      "bufferView": 1,
      "byteOffset": 79392,
      "componentType": 5126,
      "count": 16596,
      "max": [
        0.9867129921913147,
        0.9032480120658875
      ],
      "min": [
        0.013287000358104706,
        0.013287000358104706
      ],
      "type": "VEC2"
    },
    {
      "bufferView": 0,
      "byteOffset": 160560,
      "componentType": 5125,
      "count": 95988,
      "type": "SCALAR"
    },
    {
      "bufferView": 2,
      "byteOffset": 636480,
      "componentType": 5126,
      "count": 16596,
      "max": [
        284.87384033203125,
        209.29136657714844,
        1518.931640625
      ],
      "min": [
        -302.7731018066406,
        -165.4066619873047,
        827.3975830078125
      ],
      "type": "VEC3"
    },
    {
      "bufferView": 2,
      "byteOffset": 835632,
      "componentType": 5126,
      "count": 16596,
      "max": [
        0.999934732913971,
        0.9999425411224365,
        0.9785926342010498
      ],
      "min": [
        -0.9999907612800598,
        -0.9999989867210388,
        -0.9904274940490723
      ],
      "type": "VEC3"
    },
    {
      "bufferView": 1,
      "byteOffset": 212160,
      "componentType": 5126,
      "count": 16596,
      "max": [
        0.9867129921913147,
        0.9032480120658875
      ],
      "min": [
        0.013287000358104706,
        0.013287000358104706
      ],
      "type": "VEC2"
    },
    {
      "bufferView": 0,
      "byteOffset": 544512,
      "componentType": 5125,
      "count": 95988,
      "type": "SCALAR"
    },
    {
      "bufferView": 2,
      "byteOffset": 1034784,
      "componentType": 5126,
      "count": 11102,
      "max": [
        287.6867980957031,
        185.71243286132813,
        1521.7110595703125
      ],
      "min": [
        -305.6800537109375,
        -168.34814453125,
        825.3235473632813
      ],
      "type": "VEC3"
    },
    {
      "bufferView": 2,
      "byteOffset": 1168008,
      "componentType": 5126,
      "count": 11102,
      "max": [
        0.9999563694000244,
        0.9998743534088135,
        0.999984860420227
      ],
      "min": [
        -0.9999845027923584,
        -0.9998622536659241,
        -0.999988853931427
      ],
      "type": "VEC3"
    },
    {
      "bufferView": 1,
      "byteOffset": 344928,
      "componentType": 5126,
      "count": 11102,
      "max": [
        0.9867129921913147,
        0.9032480120658875
      ],
      "min": [
        0.013287000358104706,
        0.013287000358104706
      ],
      "type": "VEC2"
    },
    {
      "bufferView": 0,
      "byteOffset": 928464,
      "componentType": 5125,
      "count": 59616,
      "type": "SCALAR"
    }
  ],
  "asset": {
    "extras": {
      "author": "Obridje (https://sketchfab.com/Obridje)",
      "license": "CC-BY-4.0 (http://creativecommons.org/licenses/by/4.0/)",
      "source": "https://sketchfab.com/3d-models/t-shirt-76240162dcd747d4bb4ca3658b463b0a",
      "title": "T-SHIRT"
    },
    "generator": "Sketchfab-15.17.0",
    "version": "2.0"
  },
  "bufferViews": [
    {
      "buffer": 0,
      "byteLength": 1166928,
      "name": "floatBufferViews",
      "target": 34963
    },
    {
      "buffer": 0,
      "byteLength": 433744,
      "byteOffset": 1166928,
      "byteStride": 8,
      "name": "floatBufferViews",
      "target": 34962
    },
    {
      "buffer": 0,
      "byteLength": 1301232,
      "byteOffset": 1600672,
      "byteStride": 12,
      "name": "floatBufferViews",
      "target": 34962
    },
    {
      "buffer": 0,
      "byteLength": 58672,
      "byteOffset": 2901904,
      "byteStride": 16,
      "name": "floatBufferViews",
      "target": 34962
    }
  ],
  "buffers": [
    {
      "byteLength": 2960576,
      "uri": "scene.bin"
    }
  ],
  "images": [
    {
      "uri": "textures/col_FRONT_6003013_baseColor.png"
    },
    {
      "uri": "textures/logo_FRONT_6003008_normal.png"
    }
  ],
  "materials": [
    {
      "doubleSided": true,
      "emissiveTexture": {
        "index": 0
      },
      "name": "col_FRONT_6003013",
      "pbrMetallicRoughness": {
        "baseColorTexture": {
          "index": 0
        },
        "metallicFactor": 0.0,
        "roughnessFactor": 0.9827475502465659
      }
    },
    {
      "doubleSided": true,
      "emissiveTexture": {
        "index": 0
      },
      "name": "logo_FRONT_6003008",
      "normalTexture": {
        "index": 1
      },
      "pbrMetallicRoughness": {
        "baseColorTexture": {
          "index": 0
        },
        "metallicFactor": 0.0
      }
    },
    {
      "doubleSided": true,
      "emissiveTexture": {
        "index": 0
      },
      "name": "t-shirt_FRONT_6003003",
      "pbrMetallicRoughness": {
        "baseColorTexture": {
          "index": 0
        },
        "metallicFactor": 0.0,
        "roughnessFactor": 0.9827475502465659
      }
    }
  ],
  "meshes": [
    {
      "name": "Object_0",
      "primitives": [
        {
          "attributes": {
            "NORMAL": 1,
            "POSITION": 0,
            "TEXCOORD_0": 2
          },
          "indices": 3,
          "material": 0,
          "mode": 4
        }
      ]
    },
    {
      "name": "Object_1",
      "primitives": [
        {
          "attributes": {
            "NORMAL": 5,
            "POSITION": 4,
            "TANGENT": 6,
            "TEXCOORD_0": 7
          },
          "indices": 8,
          "material": 1,
          "mode": 4
        }
      ]
    },
    {
      "name": "Object_2",
      "primitives": [
        {
          "attributes": {
            "NORMAL": 10,
            "POSITION": 9,
            "TEXCOORD_0": 11
          },
          "indices": 12,
          "material": 2,
          "mode": 4
        }
      ]
    },
    {
      "name": "Object_3",
      "primitives": [
        {
          "attributes": {
            "NORMAL": 14,
            "POSITION": 13,
            "TEXCOORD_0": 15
          },
          "indices": 16,
          "material": 2,
          "mode": 4
        }
      ]
    },
    {
      "name": "Object_4",
      "primitives": [
        {
          "attributes": {
            "NORMAL": 18,
            "POSITION": 17,
            "TEXCOORD_0": 19
          },
          "indices": 20,
          "material": 2,
          "mode": 4
        }
      ]
    }
  ],
  "nodes": [
    {
      "children": [
        1
      ],
      "matrix": [
        1.0,
        0.0,
        0.0,
        0.0,
        0.0,
        2.220446049250313e-16,
        -1.0,
        0.0,
        0.0,
        1.0,
        2.220446049250313e-16,
        0.0,
        0.0,
        0.0,
        0.0,
        1.0
      ],
      "name": "Sketchfab_model"
    },
    {
      "children": [
        2,
        3,
        4,
        5,
        6
      ],
      "name": "T-SHIRT.obj.cleaner.materialmerger.gles"
    },
    {
      "mesh": 0,
      "name": "Object_2"
    },
    {
      "mesh": 1,
      "name": "Object_3"
    },
    {
      "mesh": 2,
      "name": "Object_4"
    },
    {
      "mesh": 3,
      "name": "Object_5"
    },
    {
      "mesh": 4,
      "name": "Object_6"
    }
  ],
  "samplers": [
    {
      "magFilter": 9729,
      "minFilter": 9987,
      "wrapS": 10497,
      "wrapT": 10497
    }
  ],
  "scene": 0,
  "scenes": [
    {
      "name": "Sketchfab_Scene",
      "nodes": [
        0
      ]
    }
  ],
  "textures": [
    {
      "sampler": 0,
      "source": 0
    },
    {
      "sampler": 0,
      "source": 1
    }
  ]
}
