{
  "accessors": [
    {
      "bufferView": 2,
      "componentType": 5126,
      "count": 65532,
      "max": [
        0.15656599402427673,
        0.26375800371170044,
        0.3492709994316101
      ],
      "min": [
        -0.16999399662017822,
        -0.2765919864177704,
        -0.31697699427604675
      ],
      "type": "VEC3"
    },
    {
      "bufferView": 2,
      "byteOffset": 786384,
      "componentType": 5126,
      "count": 65532,
      "max": [
        0.9999921321868896,
        0.9999661445617676,
        1.0
      ],
      "min": [
        -0.9998968839645386,
        -0.9999403953552246,
        -0.9998161196708679
      ],
      "type": "VEC3"
    },
    {
      "bufferView": 1,
      "componentType": 5126,
      "count": 65532,
      "max": [
        0.9984470009803772,
        0.9915099740028381
      ],
      "min": [
        0.005251000169664621,
        0.0
      ],
      "type": "VEC2"
    },
    {
      "bufferView": 0,
      "componentType": 5125,
      "count": 67524,
      "type": "SCALAR"
    },
    {
      "bufferView": 2,
      "byteOffset": 1572768,
      "componentType": 5126,
      "count": 65534,
      "max": [
        0.16471600532531738,
        0.2588079869747162,
        0.3217470049858093
      ],
      "min": [
        -0.16451400518417358,
        -0.26847198605537415,
        -0.30444300174713135
      ],
      "type": "VEC3"
    },
    {
      "bufferView": 2,
      "byteOffset": 2359176,
      "componentType": 5126,
      "count": 65534,
      "max": [
        0.9999945163726807,
        0.9999247789382935,
        0.9788385033607483
      ],
      "min": [
        -0.9999886751174927,
        -0.9906778931617737,
        -0.9344001412391663
      ],
      "type": "VEC3"
    },
    {
      "bufferView": 1,
      "byteOffset": 524256,
      "componentType": 5126,
      "count": 65534,
      "max": [
        0.5920889973640442,
        0.9916290044784546
      ],
      "min": [
        0.002174000022932887,
        0.37366899847984314
      ],
      "type": "VEC2"
    },
    {
      "bufferView": 0,
      "byteOffset": 270096,
      "componentType": 5125,
      "count": 65556,
      "type": "SCALAR"
    },
    {
      "bufferView": 2,
      "byteOffset": 3145584,
      "componentType": 5126,
      "count": 12913,
      "max": [
        0.11128599941730499,
        0.20782800018787384,
        0.23163700103759766
      ],
      "min": [
        -0.11472400277853012,
        -0.2736620008945465,
        -0.30857300758361816
      ],
      "type": "VEC3"
    },
    {
      "bufferView": 2,
      "byteOffset": 3300540,
      "componentType": 5126,
      "count": 12913,
      "max": [
        0.9993444085121155,
        0.9997480511665344,
        0.9444646835327148
      ],
      "min": [
        -0.999920129776001,
        -0.9999929666519165,
        -0.8035948276519775
      ],
      "type": "VEC3"
    },
    {
      "bufferView": 1,
      "byteOffset": 1048528,
      "componentType": 5126,
      "count": 12913,
      "max": [
        0.8290089964866638,
        0.9916620254516602
      ],
      "min": [
        0.5850809812545776,
        0.7869129776954651
      ],
      "type": "VEC2"
    },
    {
      "bufferView": 0,
      "byteOffset": 532320,
      "componentType": 5125,
      "count": 12915,
      "type": "SCALAR"
    }
  ],
  "asset": {
    "extras": {
      "author": "ShadowAssetsStore (https://sketchfab.com/ShadowAssetStore)",
      "license": "CC-BY-4.0 (http://creativecommons.org/licenses/by/4.0/)",
      "source": "https://sketchfab.com/3d-models/jungle-like-patterned-hoodie-fdea5384a0c2419fa1b9c47902fc2669",
      "title": "ジャングルっぽい柄のパーカー Jungle-like patterned hoodie"
    },
    "generator": "Sketchfab-15.17.0",
    "version": "2.0"
  },
  "bufferViews": [
    {
      "buffer": 0,
      "byteLength": 583980,
      "name": "floatBufferViews",
      "target": 34963
    },
    {
      "buffer": 0,
      "byteLength": 1151832,
      "byteOffset": 583980,
      "byteStride": 8,
      "name": "floatBufferViews",
      "target": 34962
    },
    {
      "buffer": 0,
      "byteLength": 3455496,
      "byteOffset": 1735812,
      "byteStride": 12,
      "name": "floatBufferViews",
      "target": 34962
    }
  ],
  "buffers": [
    {
      "byteLength": 5191308,
      "uri": "scene.bin"
    }
  ],
  "extensionsUsed": [
    "KHR_materials_specular"
  ],
  "images": [
    {
      "uri": "textures/main_baseColor.jpeg"
    }
  ],
  "materials": [
    {
      "doubleSided": true,
      "emissiveFactor": [
        1.0,
        1.0,
        1.0
      ],
      "emissiveTexture": {
        "index": 0
      },
      "extensions": {
        "KHR_materials_specular": {
          "specularColorFactor": [
            1.0,
            1.0,
            1.0
          ],
          "specularFactor": 0.0
        }
      },
      "name": "main",
      "pbrMetallicRoughness": {
        "baseColorTexture": {
          "index": 0
        },
        "metallicFactor": 0.0
      }
    }
  ],
  "meshes": [
    {
      "name": "Object_0",
      "primitives": [
        {
          "attributes": {
            "NORMAL": 1,
            "POSITION": 0,
            "TEXCOORD_0": 2
          },
          "indices": 3,
          "material": 0,
          "mode": 4
        }
      ]
    },
    {
      "name": "Object_1",
      "primitives": [
        {
          "attributes": {
            "NORMAL": 5,
            "POSITION": 4,
            "TEXCOORD_0": 6
          },
          "indices": 7,
          "material": 0,
          "mode": 4
        }
      ]
    },
    {
      "name": "Object_2",
      "primitives": [
        {
          "attributes": {
            "NORMAL": 9,
            "POSITION": 8,
            "TEXCOORD_0": 10
          },
          "indices": 11,
          "material": 0,
          "mode": 4
        }
      ]
    }
  ],
  "nodes": [
    {
      "children": [
        1
      ],
      "matrix": [
        1.0,
        0.0,
        0.0,
        0.0,
        0.0,
        2.220446049250313e-16,
        -1.0,
        0.0,
        0.0,
        1.0,
        2.220446049250313e-16,
        0.0,
        0.0,
        0.0,
        0.0,
        1.0
      ],
      "name": "Sketchfab_model"
    },
    {
      "children": [
        2,
        3,
        4
      ],
      "name": "s_memorialparker.obj.cleaner.materialmerger.gles"
    },
    {
      "mesh": 0,
      "name": "Object_2"
    },
    {
      "mesh": 1,
      "name": "Object_3"
    },
    {
      "mesh": 2,
      "name": "Object_4"
    }
  ],
  "samplers": [
    {
      "magFilter": 9729,
      "minFilter": 9987,
      "wrapS": 10497,
      "wrapT": 10497
    }
  ],
  "scene": 0,
  "scenes": [
    {
      "name": "Sketchfab_Scene",
      "nodes": [
        0
      ]
    }
  ],
  "textures": [
    {
      "sampler": 0,
      "source": 0
    }
  ]
}
