{
  "accessors": [
    {
      "bufferView": 2,
      "componentType": 5126,
      "count": 27505,
      "max": [
        1.1633280515670776,
        3.850090742111206,
        2.2286770343780518
      ],
      "min": [
        -1.1656094789505005,
        -3.7381904125213623,
        -2.669471502304077
      ],
      "type": "VEC3"
    },
    {
      "bufferView": 2,
      "byteOffset": 330060,
      "componentType": 5126,
      "count": 27505,
      "max": [
        1.0,
        0.9999966621398926,
        1.0
      ],
      "min": [
        -1.0,
        -0.9999858140945435,
        -1.0
      ],
      "type": "VEC3"
    },
    {
      "bufferView": 1,
      "componentType": 5126,
      "count": 27505,
      "max": [
        0.99755859375,
        0.9023992419242859
      ],
      "min": [
        0.00244140625,
        0.00244140625
      ],
      "type": "VEC2"
    },
    {
      "bufferView": 0,
      "componentType": 5125,
      "count": 92688,
      "type": "SCALAR"
    },
    {
      "bufferView": 2,
      "byteOffset": 660120,
      "componentType": 5126,
      "count": 557,
      "max": [
        1.526471495628357,
        1.5276193618774414,
        -3.2881648540496826
      ],
      "min": [
        -1.5287623405456543,
        -1.5276198387145996,
        -3.3569939136505127
      ],
      "type": "VEC3"
    },
    {
      "bufferView": 2,
      "byteOffset": 666804,
      "componentType": 5126,
      "count": 557,
      "max": [
        0.9995782375335693,
        0.9995765686035156,
        -0.0
      ],
      "min": [
        -0.9995770454406738,
        -0.9995766282081604,
        -1.0
      ],
      "type": "VEC3"
    },
    {
      "bufferView": 1,
      "byteOffset": 220040,
      "componentType": 5126,
      "count": 557,
      "max": [
        0.8967588543891907,
        0.99755859375
      ],
      "min": [
        0.00244140625,
        0.00244140625
      ],
      "type": "VEC2"
    },
    {
      "bufferView": 0,
      "byteOffset": 370752,
      "componentType": 5125,
      "count": 1620,
      "type": "SCALAR"
    },
    {
      "bufferView": 2,
      "byteOffset": 673488,
      "componentType": 5126,
      "count": 20143,
      "max": [
        2.4923095703125,
        2.6996822357177734,
        -2.224851131439209
      ],
      "min": [
        -2.057389736175537,
        -2.6996827125549316,
        -3.332441806793213
      ],
      "type": "VEC3"
    },
    {
      "bufferView": 2,
      "byteOffset": 915204,
      "componentType": 5126,
      "count": 20143,
      "max": [
        1.0,
        1.0,
        1.0
      ],
      "min": [
        -1.0,
        -1.0,
        -1.0
      ],
      "type": "VEC3"
    },
    {
      "bufferView": 1,
      "byteOffset": 224496,
      "componentType": 5126,
      "count": 20143,
      "max": [
        0.9680328965187073,
        0.9698441028594971
      ],
      "min": [
        0.002441391348838806,
        0.00244140625
      ],
      "type": "VEC2"
    },
    {
      "bufferView": 0,
      "byteOffset": 377232,
      "componentType": 5125,
      "count": 68727,
      "type": "SCALAR"
    },
    {
      "bufferView": 2,
      "byteOffset": 1156920,
      "componentType": 5126,
      "count": 181,
      "max": [
        2.299999952316284,
        -0.0014439820079132915,
        1.2246029376983643
      ],
      "min": [
        -2.299999952316284,
        -2.6014440059661865,
        -2.375396966934204
      ],
      "type": "VEC3"
    },
    {
      "bufferView": 2,
      "byteOffset": 1159092,
      "componentType": 5126,
      "count": 181,
      "max": [
        1.0,
        1.0,
        1.0
      ],
      "min": [
        -1.0,
        -1.0,
        -1.0
      ],
      "type": "VEC3"
    },
    {
      "bufferView": 1,
      "byteOffset": 385640,
      "componentType": 5126,
      "count": 181,
      "max": [
        1.0,
        1.0
      ],
      "min": [
        0.0,
        0.0
      ],
      "type": "VEC2"
    },
    {
      "bufferView": 0,
      "byteOffset": 652140,
      "componentType": 5125,
      "count": 219,
      "type": "SCALAR"
    },
    {
      "bufferView": 2,
      "byteOffset": 1161264,
      "componentType": 5126,
      "count": 7057,
      "max": [
        1.762226939201355,
        -0.9601799845695496,
        -2.3788490295410156
      ],
      "min": [
        -1.51841402053833,
        -1.741284966468811,
        -2.418848991394043
      ],
      "type": "VEC3"
    },
    {
      "bufferView": 2,
      "byteOffset": 1245948,
      "componentType": 5126,
      "count": 7057,
      "max": [
        1.0,
        1.0,
        -0.0
      ],
      "min": [
        -1.0,
        -1.0,
        -1.0
      ],
      "type": "VEC3"
    },
    {
      "bufferView": 1,
      "byteOffset": 387088,
      "componentType": 5126,
      "count": 7057,
      "max": [
        1.0,
        1.0
      ],
      "min": [
        0.0,
        0.0
      ],
      "type": "VEC2"
    },
    {
      "bufferView": 0,
      "byteOffset": 653016,
      "componentType": 5125,
      "count": 7647,
      "type": "SCALAR"
    }
  ],
  "asset": {
    "extras": {
      "author": "Watches (https://sketchfab.com/ern9)",
      "license": "CC-BY-4.0 (http://creativecommons.org/licenses/by/4.0/)",
      "source": "https://sketchfab.com/3d-models/omega-seamaster-300m-6baf4b61616543a8af1480caac049e68",
      "title": "Omega Seamaster 300m"
    },
    "generator": "Sketchfab-15.16.0",
    "version": "2.0"
  },
  "bufferViews": [
    {
      "buffer": 0,
      "byteLength": 683604,
      "name": "floatBufferViews",
      "target": 34963
    },
    {
      "buffer": 0,
      "byteLength": 443544,
      "byteOffset": 683604,
      "byteStride": 8,
      "name": "floatBufferViews",
      "target": 34962
    },
    {
      "buffer": 0,
      "byteLength": 1330632,
      "byteOffset": 1127148,
      "byteStride": 12,
      "name": "floatBufferViews",
      "target": 34962
    }
  ],
  "buffers": [
    {
      "byteLength": 2457780,
      "uri": "scene.bin"
    }
  ],
  "images": [
    {
      "uri": "textures/omega_seamaster_diver_main_mat_baseColor.jpeg"
    },
    {
      "uri": "textures/omega_seamaster_diver_main_mat_metallicRoughness.png"
    }
  ],
  "materials": [
    {
      "doubleSided": true,
      "name": "omega_seamaster_diver_main_mat",
      "pbrMetallicRoughness": {
        "baseColorTexture": {
          "index": 0
        },
        "metallicRoughnessTexture": {
          "index": 1
        }
      }
    },
    {
      "alphaMode": "BLEND",
      "doubleSided": true,
      "name": "omega_seamaster_diver_glass_mat",
      "pbrMetallicRoughness": {
        "baseColorFactor": [
          0.0,
          0.0,
          0.0,
          0.44978741699525004
        ],
        "metallicFactor": 0.0,
        "roughnessFactor": 0.14531594901651435
      }
    },
    {
      "doubleSided": true,
      "name": "sockel_mat",
      "pbrMetallicRoughness": {
        "baseColorFactor": [
          0.8,
          0.8,
          0.8,
          1.0
        ],
        "metallicFactor": 0.0,
        "roughnessFactor": 0.5
      }
    },
    {
      "doubleSided": true,
      "name": "sockel_logo_mat",
      "pbrMetallicRoughness": {
        "baseColorFactor": [
          0.8,
          0.8,
          0.8,
          1.0
        ],
        "metallicFactor": 0.0,
        "roughnessFactor": 0.5
      }
    }
  ],
  "meshes": [
    {
      "name": "Object_0",
      "primitives": [
        {
          "attributes": {
            "NORMAL": 1,
            "POSITION": 0,
            "TEXCOORD_0": 2
          },
          "indices": 3,
          "material": 0,
          "mode": 4
        }
      ]
    },
    {
      "name": "Object_1",
      "primitives": [
        {
          "attributes": {
            "NORMAL": 5,
            "POSITION": 4,
            "TEXCOORD_0": 6
          },
          "indices": 7,
          "material": 1,
          "mode": 4
        }
      ]
    },
    {
      "name": "Object_2",
      "primitives": [
        {
          "attributes": {
            "NORMAL": 9,
            "POSITION": 8,
            "TEXCOORD_0": 10
          },
          "indices": 11,
          "material": 0,
          "mode": 4
        }
      ]
    },
    {
      "name": "Object_3",
      "primitives": [
        {
          "attributes": {
            "NORMAL": 13,
            "POSITION": 12,
            "TEXCOORD_0": 14
          },
          "indices": 15,
          "material": 2,
          "mode": 4
        }
      ]
    },
    {
      "name": "Object_4",
      "primitives": [
        {
          "attributes": {
            "NORMAL": 17,
            "POSITION": 16,
            "TEXCOORD_0": 18
          },
          "indices": 19,
          "material": 3,
          "mode": 4
        }
      ]
    }
  ],
  "nodes": [
    {
      "children": [
        1
      ],
      "matrix": [
        1.0,
        0.0,
        0.0,
        0.0,
        0.0,
        2.220446049250313e-16,
        -1.0,
        0.0,
        0.0,
        1.0,
        2.220446049250313e-16,
        0.0,
        0.0,
        0.0,
        0.0,
        1.0
      ],
      "name": "Sketchfab_model"
    },
    {
      "children": [
        2
      ],
      "name": "root"
    },
    {
      "children": [
        3
      ],
      "matrix": [
        1.0,
        0.0,
        0.0,
        0.0,
        0.0,
        2.220446049250313e-16,
        1.0,
        0.0,
        0.0,
        -1.0,
        2.220446049250313e-16,
        0.0,
        0.0,
        0.0,
        0.0,
        1.0
      ],
      "name": "GLTF_SceneRootNode"
    },
    {
      "children": [
        4
      ],
      "matrix": [
        1.0,
        0.0,
        0.0,
        0.0,
        0.0,
        -1.685873969314855e-07,
        0.9999999999999858,
        0.0,
        0.0,
        -0.9999999999999858,
        -1.685873969314855e-07,
        0.0,
        0.0,
        0.0,
        0.0,
        1.0
      ],
      "name": "seamaster_diver_sockel_9"
    },
    {
      "children": [
        5
      ],
      "name": "Geom_7"
    },
    {
      "children": [
        6,
        13,
        15
      ],
      "matrix": [
        100.0,
        0.0,
        0.0,
        0.0,
        0.0,
        100.0,
        0.0,
        0.0,
        0.0,
        0.0,
        100.0,
        0.0,
        0.0,
        0.0,
        0.0,
        1.0
      ],
      "name": "metersPerUnit_6"
    },
    {
      "children": [
        7,
        9,
        11
      ],
      "matrix": [
        0.009999999776482582,
        0.0,
        0.0,
        0.0,
        0.0,
        0.0050000007168556964,
        0.00866025336587182,
        0.0,
        0.0,
        -0.00866025336587182,
        0.0050000007168556964,
        0.0,
        0.0,
        -0.004999999888241291,
        -0.05900000035762787,
        1.0
      ],
      "name": "omega_seamaster_diver_grp_3"
    },
    {
      "children": [
        8
      ],
      "name": "omega_seamaster_diver_braceletMedium_0"
    },
    {
      "mesh": 0,
      "name": "Object_8"
    },
    {
      "children": [
        10
      ],
      "name": "omega_seamaster_diver_glass_1"
    },
    {
      "mesh": 1,
      "name": "Object_10"
    },
    {
      "children": [
        12
      ],
      "name": "omega_seamaster_diver_main_2"
    },
    {
      "mesh": 2,
      "name": "Object_12"
    },
    {
      "children": [
        14
      ],
      "matrix": [
        0.009999999776482582,
        0.0,
        0.0,
        0.0,
        0.0,
        -2.528810790867545e-09,
        0.009999999776482263,
        0.0,
        0.0,
        -0.009999999776482263,
        -2.528810790867545e-09,
        0.0,
        0.0,
        0.0,
        0.0,
        1.0
      ],
      "name": "Sockel_body_4"
    },
    {
      "mesh": 3,
      "name": "Object_14"
    },
    {
      "children": [
        16
      ],
      "matrix": [
        0.009999874979257584,
        0.0,
        0.0,
        0.0,
        0.0,
        -2.528810790867545e-09,
        0.009999999776482263,
        0.0,
        0.0,
        -0.009999999776482263,
        -2.528810790867545e-09,
        0.0,
        0.0,
        0.0,
        0.0,
        1.0
      ],
      "name": "Sockel_logo_5"
    },
    {
      "mesh": 4,
      "name": "Object_16"
    }
  ],
  "samplers": [
    {
      "magFilter": 9729,
      "minFilter": 9987,
      "wrapS": 10497,
      "wrapT": 10497
    }
  ],
  "scene": 0,
  "scenes": [
    {
      "name": "Sketchfab_Scene",
      "nodes": [
        0
      ]
    }
  ],
  "textures": [
    {
      "sampler": 0,
      "source": 0
    },
    {
      "sampler": 0,
      "source": 1
    }
  ]
}
