{
  "accessors": [
    {
      "bufferView": 2,
      "componentType": 5126,
      "count": 6313,
      "max": [
        10.248418807983398,
        10.134336471557617,
        11.402860641479492
      ],
      "min": [
        -10.000000953674316,
        -11.145633697509766,
        -19.14483642578125
      ],
      "type": "VEC3"
    },
    {
      "bufferView": 2,
      "byteOffset": 75756,
      "componentType": 5126,
      "count": 6313,
      "max": [
        1.0,
        1.0,
        1.0
      ],
      "min": [
        -1.0,
        -1.0,
        -1.0
      ],
      "type": "VEC3"
    },
    {
      "bufferView": 3,
      "componentType": 5126,
      "count": 6313,
      "max": [
        1.0,
        1.0,
        0.9999841451644897,
        1.0
      ],
      "min": [
        -1.0,
        -1.0,
        -0.7071068286895752,
        1.0
      ],
      "type": "VEC4"
    },
    {
      "bufferView": 1,
      "componentType": 5126,
      "count": 6313,
      "max": [
        0.9900000095367432,
        0.9849660396575928
      ],
      "min": [
        0.009999999776482582,
        0.009999999776482582
      ],
      "type": "VEC2"
    },
    {
      "bufferView": 1,
      "byteOffset": 50504,
      "componentType": 5126,
      "count": 6313,
      "max": [
        0.9900000095367432,
        0.9849660396575928
      ],
      "min": [
        0.009999999776482582,
        0.009999999776482582
      ],
      "type": "VEC2"
    },
    {
      "bufferView": 1,
      "byteOffset": 101008,
      "componentType": 5126,
      "count": 6313,
      "max": [
        0.9900000095367432,
        0.9849660396575928
      ],
      "min": [
        0.009999999776482582,
        0.009999999776482582
      ],
      "type": "VEC2"
    },
    {
      "bufferView": 1,
      "byteOffset": 151512,
      "componentType": 5126,
      "count": 6313,
      "max": [
        0.9900000095367432,
        0.9849660396575928
      ],
      "min": [
        0.009999999776482582,
        0.009999999776482582
      ],
      "type": "VEC2"
    },
    {
      "bufferView": 1,
      "byteOffset": 202016,
      "componentType": 5126,
      "count": 6313,
      "max": [
        0.9900000095367432,
        0.9849660396575928
      ],
      "min": [
        0.009999999776482582,
        0.009999999776482582
      ],
      "type": "VEC2"
    },
    {
      "bufferView": 1,
      "byteOffset": 252520,
      "componentType": 5126,
      "count": 6313,
      "max": [
        0.9900000095367432,
        0.9849660396575928
      ],
      "min": [
        0.009999999776482582,
        0.009999999776482582
      ],
      "type": "VEC2"
    },
    {
      "bufferView": 1,
      "byteOffset": 303024,
      "componentType": 5126,
      "count": 6313,
      "max": [
        0.9900000095367432,
        0.9849660396575928
      ],
      "min": [
        0.009999999776482582,
        0.009999999776482582
      ],
      "type": "VEC2"
    },
    {
      "bufferView": 1,
      "byteOffset": 353528,
      "componentType": 5126,
      "count": 6313,
      "max": [
        0.9900000095367432,
        0.9849660396575928
      ],
      "min": [
        0.009999999776482582,
        0.009999999776482582
      ],
      "type": "VEC2"
    },
    {
      "bufferView": 1,
      "byteOffset": 404032,
      "componentType": 5126,
      "count": 6313,
      "max": [
        0.9900000095367432,
        0.9849660396575928
      ],
      "min": [
        0.009999999776482582,
        0.009999999776482582
      ],
      "type": "VEC2"
    },
    {
      "bufferView": 1,
      "byteOffset": 454536,
      "componentType": 5126,
      "count": 6313,
      "max": [
        0.9900000095367432,
        0.9849660396575928
      ],
      "min": [
        0.009999999776482582,
        0.009999999776482582
      ],
      "type": "VEC2"
    },
    {
      "bufferView": 0,
      "componentType": 5125,
      "count": 30606,
      "type": "SCALAR"
    }
  ],
  "asset": {
    "extras": {
      "author": "BarnusModels (https://sketchfab.com/barnusmodels)",
      "license": "CC-BY-4.0 (http://creativecommons.org/licenses/by/4.0/)",
      "source": "https://sketchfab.com/3d-models/nightstand-5e4770c881e44ec3b80c34aa9497704e",
      "title": "Nightstand"
    },
    "generator": "Sketchfab-15.17.0",
    "version": "2.0"
  },
  "bufferViews": [
    {
      "buffer": 0,
      "byteLength": 122424,
      "name": "floatBufferViews",
      "target": 34963
    },
    {
      "buffer": 0,
      "byteLength": 505040,
      "byteOffset": 122424,
      "byteStride": 8,
      "name": "floatBufferViews",
      "target": 34962
    },
    {
      "buffer": 0,
      "byteLength": 151512,
      "byteOffset": 627464,
      "byteStride": 12,
      "name": "floatBufferViews",
      "target": 34962
    },
    {
      "buffer": 0,
      "byteLength": 101008,
      "byteOffset": 778976,
      "byteStride": 16,
      "name": "floatBufferViews",
      "target": 34962
    }
  ],
  "buffers": [
    {
      "byteLength": 879984,
      "uri": "scene.bin"
    }
  ],
  "images": [
    {
      "uri": "textures/Material__4_baseColor.png"
    },
    {
      "uri": "textures/Material__4_metallicRoughness.png"
    },
    {
      "uri": "textures/Material__4_normal.png"
    }
  ],
  "materials": [
    {
      "doubleSided": true,
      "name": "Material__4",
      "normalTexture": {
        "index": 2
      },
      "pbrMetallicRoughness": {
        "baseColorTexture": {
          "index": 0
        },
        "metallicRoughnessTexture": {
          "index": 1
        }
      }
    }
  ],
  "meshes": [
    {
      "name": "Object003_Material _4_0",
      "primitives": [
        {
          "attributes": {
            "NORMAL": 1,
            "POSITION": 0,
            "TANGENT": 2,
            "TEXCOORD_0": 3,
            "TEXCOORD_1": 4,
            "TEXCOORD_2": 5,
            "TEXCOORD_3": 6,
            "TEXCOORD_4": 7,
            "TEXCOORD_5": 8,
            "TEXCOORD_6": 9,
            "TEXCOORD_7": 10,
            "TEXCOORD_8": 11,
            "TEXCOORD_9": 12
          },
          "indices": 13,
          "material": 0,
          "mode": 4
        }
      ]
    }
  ],
  "nodes": [
    {
      "children": [
        1
      ],
      "matrix": [
        1.0,
        0.0,
        0.0,
        0.0,
        0.0,
        2.220446049250313e-16,
        -1.0,
        0.0,
        0.0,
        1.0,
        2.220446049250313e-16,
        0.0,
        0.0,
        0.0,
        0.0,
        1.0
      ],
      "name": "Sketchfab_model"
    },
    {
      "children": [
        2
      ],
      "matrix": [
        0.02539999969303608,
        0.0,
        0.0,
        0.0,
        0.0,
        0.0,
        0.02539999969303608,
        0.0,
        0.0,
        -0.02539999969303608,
        0.0,
        0.0,
        0.0,
        0.0,
        0.0,
        1.0
      ],
      "name": "cc018b02cb30414dbf866cd2371ebe20.fbx"
    },
    {
      "children": [
        3
      ],
      "name": "RootNode"
    },
    {
      "children": [
        4
      ],
      "matrix": [
        0.8614820241928101,
        0.0,
        0.0,
        0.0,
        0.0,
        1.5729551384767107e-16,
        -0.7083960175514221,
        0.0,
        0.0,
        0.8614820241928101,
        1.9128743571190877e-16,
        0.0,
        0.13680362701416016,
        16.4929256439209,
        -0.5554234981536865,
        1.0
      ],
      "name": "Object003"
    },
    {
      "mesh": 0,
      "name": "Object003_Material _4_0"
    }
  ],
  "samplers": [
    {
      "magFilter": 9729,
      "minFilter": 9987,
      "wrapS": 10497,
      "wrapT": 10497
    }
  ],
  "scene": 0,
  "scenes": [
    {
      "name": "Sketchfab_Scene",
      "nodes": [
        0
      ]
    }
  ],
  "textures": [
    {
      "sampler": 0,
      "source": 0
    },
    {
      "sampler": 0,
      "source": 1
    },
    {
      "sampler": 0,
      "source": 2
    }
  ]
}
