{
  "accessors": [
    {
      "bufferView": 1,
      "componentType": 5126,
      "count": 65532,
      "max": [
        0.08765985071659088,
        0.06008624657988548,
        0.10488908737897873
      ],
      "min": [
        -0.06274063140153885,
        -0.020347759127616882,
        -0.08803027123212814
      ],
      "type": "VEC3"
    },
    {
      "bufferView": 1,
      "byteOffset": 786384,
      "componentType": 5126,
      "count": 65532,
      "max": [
        0.9999971985816956,
        1.0,
        1.0
      ],
      "min": [
        -0.9999972581863403,
        -1.0,
        -1.0
      ],
      "type": "VEC3"
    },
    {
      "bufferView": 0,
      "componentType": 5125,
      "count": 319821,
      "type": "SCALAR"
    },
    {
      "bufferView": 1,
      "byteOffset": 1572768,
      "componentType": 5126,
      "count": 65532,
      "max": [
        0.08751896023750305,
        0.06008624657988548,
        0.10437151789665222
      ],
      "min": [
        -0.06274063140153885,
        -0.020347530022263527,
        -0.08755707740783691
      ],
      "type": "VEC3"
    },
    {
      "bufferView": 1,
      "byteOffset": 2359152,
      "componentType": 5126,
      "count": 65532,
      "max": [
        0.9999971985816956,
        1.0,
        1.0
      ],
      "min": [
        -0.9999955892562866,
        -1.0,
        -0.997210681438446
      ],
      "type": "VEC3"
    },
    {
      "bufferView": 0,
      "byteOffset": 1279284,
      "componentType": 5125,
      "count": 322731,
      "type": "SCALAR"
    },
    {
      "bufferView": 1,
      "byteOffset": 3145536,
      "componentType": 5126,
      "count": 25549,
      "max": [
        0.08765985071659088,
        0.0566064789891243,
        0.0984749048948288
      ],
      "min": [
        0.01678963378071785,
        -0.010825438424944878,
        -0.08753623068332672
      ],
      "type": "VEC3"
    },
    {
      "bufferView": 1,
      "byteOffset": 3452124,
      "componentType": 5126,
      "count": 25549,
      "max": [
        0.9999955892562866,
        1.0,
        0.9950719475746155
      ],
      "min": [
        -0.9999972581863403,
        -1.0,
        -0.9949473142623901
      ],
      "type": "VEC3"
    },
    {
      "bufferView": 0,
      "byteOffset": 2570208,
      "componentType": 5125,
      "count": 127368,
      "type": "SCALAR"
    }
  ],
  "asset": {
    "extras": {
      "author": "Viky_3D (https://sketchfab.com/VikyStefiniv)",
      "license": "CC-BY-4.0 (http://creativecommons.org/licenses/by/4.0/)",
      "source": "https://sketchfab.com/3d-models/hat-74b1a8135a914dce9d3e58684eefc80f",
      "title": "HAT"
    },
    "generator": "Sketchfab-15.17.0",
    "version": "2.0"
  },
  "bufferViews": [
    {
      "buffer": 0,
      "byteLength": 3079680,
      "name": "floatBufferViews",
      "target": 34963
    },
    {
      "buffer": 0,
      "byteLength": 3758712,
      "byteOffset": 3079680,
      "byteStride": 12,
      "name": "floatBufferViews",
      "target": 34962
    }
  ],
  "buffers": [
    {
      "byteLength": 6838392,
      "uri": "scene.bin"
    }
  ],
  "materials": [
    {
      "doubleSided": true,
      "name": "Berret",
      "pbrMetallicRoughness": {
        "baseColorFactor": [
          0.01312624027661163,
          0.016693900093854838,
          0.04076542882373639,
          1.0
        ],
        "metallicFactor": 0.0,
        "roughnessFactor": 0.7952606046789028
      }
    }
  ],
  "meshes": [
    {
      "name": "Berret_Berret_0",
      "primitives": [
        {
          "attributes": {
            "NORMAL": 1,
            "POSITION": 0
          },
          "indices": 2,
          "material": 0,
          "mode": 4
        }
      ]
    },
    {
      "name": "Berret_Berret_0",
      "primitives": [
        {
          "attributes": {
            "NORMAL": 4,
            "POSITION": 3
          },
          "indices": 5,
          "material": 0,
          "mode": 4
        }
      ]
    },
    {
      "name": "Berret_Berret_0",
      "primitives": [
        {
          "attributes": {
            "NORMAL": 7,
            "POSITION": 6
          },
          "indices": 8,
          "material": 0,
          "mode": 4
        }
      ]
    }
  ],
  "nodes": [
    {
      "children": [
        1
      ],
      "matrix": [
        1.0,
        0.0,
        0.0,
        0.0,
        0.0,
        2.220446049250313e-16,
        -1.0,
        0.0,
        0.0,
        1.0,
        2.220446049250313e-16,
        0.0,
        0.0,
        0.0,
        0.0,
        1.0
      ],
      "name": "Sketchfab_model"
    },
    {
      "children": [
        2
      ],
      "matrix": [
        0.009999999776482582,
        0.0,
        0.0,
        0.0,
        0.0,
        0.0,
        0.009999999776482582,
        0.0,
        0.0,
        -0.009999999776482582,
        0.0,
        0.0,
        0.0,
        0.0,
        0.0,
        1.0
      ],
      "name": "Berret.fbx"
    },
    {
      "children": [
        3
      ],
      "name": "RootNode"
    },
    {
      "children": [
        4,
        5,
        6
      ],
      "name": "Berret"
    },
    {
      "mesh": 0,
      "name": "Berret_Berret_0"
    },
    {
      "mesh": 1,
      "name": "Berret_Berret_0"
    },
    {
      "mesh": 2,
      "name": "Berret_Berret_0"
    }
  ],
  "scene": 0,
  "scenes": [
    {
      "name": "Sketchfab_Scene",
      "nodes": [
        0
      ]
    }
  ]
}
