{
  "accessors": [
    {
      "bufferView": 2,
      "componentType": 5126,
      "count": 160,
      "max": [
        0.06166968494653702,
        0.2972489297389984,
        0.05821632221341133
      ],
      "min": [
        -0.06241801008582115,
        0.2215554416179657,
        -0.05979808419942856
      ],
      "type": "VEC3"
    },
    {
      "bufferView": 2,
      "byteOffset": 1920,
      "componentType": 5126,
      "count": 160,
      "max": [
        0.9510656595230103,
        1.0,
        1.0
      ],
      "min": [
        -0.9510656595230103,
        -0.7574253678321838,
        -1.0
      ],
      "type": "VEC3"
    },
    {
      "bufferView": 1,
      "componentType": 5126,
      "count": 160,
      "max": [
        0.9746258854866028,
        0.9999925494194031
      ],
      "min": [
        7.444580660376232e-06,
        7.331371307373047e-06
      ],
      "type": "VEC2"
    },
    {
      "bufferView": 0,
      "componentType": 5125,
      "count": 204,
      "type": "SCALAR"
    },
    {
      "bufferView": 2,
      "byteOffset": 3840,
      "componentType": 5126,
      "count": 8192,
      "max": [
        0.08801504224538803,
        0.2854427993297577,
        0.08801504969596863
      ],
      "min": [
        -0.08801504969596863,
        0.27017316222190857,
        -0.08801501989364624
      ],
      "type": "VEC3"
    },
    {
      "bufferView": 2,
      "byteOffset": 102144,
      "componentType": 5126,
      "count": 8192,
      "max": [
        0.9988522529602051,
        1.0,
        0.9988522529602051
      ],
      "min": [
        -0.9988522529602051,
        -0.7574470043182373,
        -0.9988522529602051
      ],
      "type": "VEC3"
    },
    {
      "bufferView": 1,
      "byteOffset": 1280,
      "componentType": 5126,
      "count": 8192,
      "max": [
        0.9789775013923645,
        1.0
      ],
      "min": [
        0.0,
        5.960464477539063e-08
      ],
      "type": "VEC2"
    },
    {
      "bufferView": 0,
      "byteOffset": 816,
      "componentType": 5125,
      "count": 12960,
      "type": "SCALAR"
    },
    {
      "bufferView": 2,
      "byteOffset": 200448,
      "componentType": 5126,
      "count": 65532,
      "max": [
        0.1166534498333931,
        0.2852539122104645,
        0.09242755174636841
      ],
      "min": [
        -0.1166534349322319,
        0.0012736846692860126,
        -0.0924275740981102
      ],
      "type": "VEC3"
    },
    {
      "bufferView": 2,
      "byteOffset": 986832,
      "componentType": 5126,
      "count": 65532,
      "max": [
        1.0,
        1.0,
        1.0
      ],
      "min": [
        -1.0,
        -1.0,
        -1.0
      ],
      "type": "VEC3"
    },
    {
      "bufferView": 1,
      "byteOffset": 66816,
      "componentType": 5126,
      "count": 65532,
      "max": [
        0.9970269203186035,
        0.9970269203186035
      ],
      "min": [
        0.002973076654598117,
        0.0038976073265075684
      ],
      "type": "VEC2"
    },
    {
      "bufferView": 0,
      "byteOffset": 52656,
      "componentType": 5125,
      "count": 303975,
      "type": "SCALAR"
    },
    {
      "bufferView": 2,
      "byteOffset": 1773216,
      "componentType": 5126,
      "count": 44427,
      "max": [
        0.092427559196949,
        0.2852539122104645,
        0.07255471497774124
      ],
      "min": [
        -0.06491117179393768,
        0.22940263152122498,
        -0.08611847460269928
      ],
      "type": "VEC3"
    },
    {
      "bufferView": 2,
      "byteOffset": 2306340,
      "componentType": 5126,
      "count": 44427,
      "max": [
        1.0,
        1.0,
        0.9999998807907104
      ],
      "min": [
        -0.9999998807907104,
        -1.0,
        -1.0
      ],
      "type": "VEC3"
    },
    {
      "bufferView": 1,
      "byteOffset": 591072,
      "componentType": 5126,
      "count": 44427,
      "max": [
        0.9964207410812378,
        0.9970269203186035
      ],
      "min": [
        0.003123912028968334,
        0.0036681294441223145
      ],
      "type": "VEC2"
    },
    {
      "bufferView": 0,
      "byteOffset": 1268556,
      "componentType": 5125,
      "count": 204681,
      "type": "SCALAR"
    }
  ],
  "asset": {
    "extras": {
      "author": "s7ntech (https://sketchfab.com/s7ntech)",
      "license": "CC-BY-4.0 (http://creativecommons.org/licenses/by/4.0/)",
      "source": "https://sketchfab.com/3d-models/ring-with-black-diamonds-and-a-ruby-75dca840682649cb9beb16c013b7f92d",
      "title": "Ring with black diamonds and a ruby"
    },
    "generator": "Sketchfab-15.17.0",
    "version": "2.0"
  },
  "bufferViews": [
    {
      "buffer": 0,
      "byteLength": 2087280,
      "name": "floatBufferViews",
      "target": 34963
    },
    {
      "buffer": 0,
      "byteLength": 946488,
      "byteOffset": 2087280,
      "byteStride": 8,
      "name": "floatBufferViews",
      "target": 34962
    },
    {
      "buffer": 0,
      "byteLength": 2839464,
      "byteOffset": 3033768,
      "byteStride": 12,
      "name": "floatBufferViews",
      "target": 34962
    }
  ],
  "buffers": [
    {
      "byteLength": 5873232,
      "uri": "scene.bin"
    }
  ],
  "extensionsUsed": [
    "KHR_materials_specular",
    "KHR_materials_clearcoat",
    "KHR_materials_transmission"
  ],
  "images": [
    {
      "uri": "textures/ruby_baseColor.png"
    },
    {
      "uri": "textures/ring_baseColor.png"
    }
  ],
  "materials": [
    {
      "doubleSided": true,
      "extensions": {
        "KHR_materials_specular": {
          "specularColorFactor": [
            1.0,
            1.0,
            1.0
          ],
          "specularFactor": 1.0
        }
      },
      "name": "ruby",
      "pbrMetallicRoughness": {
        "baseColorTexture": {
          "index": 0
        },
        "roughnessFactor": 0.0
      }
    },
    {
      "alphaMode": "BLEND",
      "doubleSided": true,
      "extensions": {
        "KHR_materials_clearcoat": {
          "clearcoatFactor": 1.0,
          "clearcoatRoughnessFactor": 0.03
        },
        "KHR_materials_specular": {
          "specularColorFactor": [
            1.0,
            1.0,
            1.0
          ],
          "specularFactor": 1.0
        },
        "KHR_materials_transmission": {
          "transmissionFactor": 0.09999999999999998
        }
      },
      "name": "diamond",
      "pbrMetallicRoughness": {
        "baseColorFactor": [
          0.0176695,
          0.0176695,
          0.0176695,
          0.9
        ],
        "roughnessFactor": 0.0
      }
    },
    {
      "doubleSided": true,
      "name": "ring",
      "pbrMetallicRoughness": {
        "baseColorTexture": {
          "index": 1
        },
        "metallicFactor": 0.0,
        "roughnessFactor": 0.05
      }
    }
  ],
  "meshes": [
    {
      "name": "Object_0",
      "primitives": [
        {
          "attributes": {
            "NORMAL": 1,
            "POSITION": 0,
            "TEXCOORD_0": 2
          },
          "indices": 3,
          "material": 0,
          "mode": 4
        }
      ]
    },
    {
      "name": "Object_1",
      "primitives": [
        {
          "attributes": {
            "NORMAL": 5,
            "POSITION": 4,
            "TEXCOORD_0": 6
          },
          "indices": 7,
          "material": 1,
          "mode": 4
        }
      ]
    },
    {
      "name": "Object_2",
      "primitives": [
        {
          "attributes": {
            "NORMAL": 9,
            "POSITION": 8,
            "TEXCOORD_0": 10
          },
          "indices": 11,
          "material": 2,
          "mode": 4
        }
      ]
    },
    {
      "name": "Object_3",
      "primitives": [
        {
          "attributes": {
            "NORMAL": 13,
            "POSITION": 12,
            "TEXCOORD_0": 14
          },
          "indices": 15,
          "material": 2,
          "mode": 4
        }
      ]
    }
  ],
  "nodes": [
    {
      "children": [
        1
      ],
      "matrix": [
        1.0,
        0.0,
        0.0,
        0.0,
        0.0,
        2.220446049250313e-16,
        -1.0,
        0.0,
        0.0,
        1.0,
        2.220446049250313e-16,
        0.0,
        0.0,
        0.0,
        0.0,
        1.0
      ],
      "name": "Sketchfab_model"
    },
    {
      "children": [
        2
      ],
      "name": "root"
    },
    {
      "children": [
        3
      ],
      "matrix": [
        1.0,
        0.0,
        0.0,
        0.0,
        0.0,
        2.220446049250313e-16,
        1.0,
        0.0,
        0.0,
        -1.0,
        2.220446049250313e-16,
        0.0,
        0.0,
        0.0,
        0.0,
        1.0
      ],
      "name": "GLTF_SceneRootNode"
    },
    {
      "children": [
        4,
        5,
        6,
        7
      ],
      "matrix": [
        0.2305830600368607,
        0.0,
        -0.973052646275646,
        0.0,
        0.0,
        1.0,
        0.0,
        0.0,
        0.973052646275646,
        0.0,
        0.2305830600368607,
        0.0,
        0.0,
        0.0,
        0.0,
        1.0
      ],
      "name": "ruby_0"
    },
    {
      "mesh": 0,
      "name": "Object_4"
    },
    {
      "mesh": 1,
      "name": "Object_5"
    },
    {
      "mesh": 2,
      "name": "Object_6"
    },
    {
      "mesh": 3,
      "name": "Object_7"
    }
  ],
  "samplers": [
    {
      "magFilter": 9729,
      "minFilter": 9987,
      "wrapS": 10497,
      "wrapT": 10497
    }
  ],
  "scene": 0,
  "scenes": [
    {
      "name": "Sketchfab_Scene",
      "nodes": [
        0
      ]
    }
  ],
  "textures": [
    {
      "sampler": 0,
      "source": 0
    },
    {
      "sampler": 0,
      "source": 1
    }
  ]
}
